<svg width="154" height="36" viewBox="0 0 154 36" fill="none" xmlns="http://www.w3.org/2000/svg">
<path d="M3.2002 19.5998C3.2002 18.7162 3.91654 17.9998 4.8002 17.9998H8.0002C8.88385 17.9998 9.60019 18.7162 9.60019 19.5998V27.5998C9.60019 28.4835 8.88385 29.1998 8.0002 29.1998H4.8002C3.91654 29.1998 3.2002 28.4835 3.2002 27.5998V19.5998Z" fill="#1A6BE6"/>
<path d="M12.8002 13.1998C12.8002 12.3161 13.5165 11.5998 14.4002 11.5998H17.6002C18.4838 11.5998 19.2002 12.3161 19.2002 13.1998V27.5998C19.2002 28.4835 18.4838 29.1998 17.6002 29.1998H14.4002C13.5165 29.1998 12.8002 28.4835 12.8002 27.5998V13.1998Z" fill="#1A6BE6"/>
<path d="M22.4002 8.39981C22.4002 7.51615 23.1165 6.7998 24.0002 6.7998H27.2002C28.0838 6.7998 28.8002 7.51615 28.8002 8.3998V27.5998C28.8002 28.4835 28.0838 29.1998 27.2002 29.1998H24.0002C23.1165 29.1998 22.4002 28.4835 22.4002 27.5998V8.39981Z" fill="#1A6BE6"/>
<path d="M42.62 26.3C41.5867 26.3 40.6533 26.1233 39.82 25.77C38.9933 25.41 38.31 24.9 37.77 24.24C37.2367 23.5733 36.89 22.7833 36.73 21.87L38.91 21.54C39.13 22.42 39.59 23.1067 40.29 23.6C40.99 24.0867 41.8067 24.33 42.74 24.33C43.32 24.33 43.8533 24.24 44.34 24.06C44.8267 23.8733 45.2167 23.61 45.51 23.27C45.81 22.9233 45.96 22.51 45.96 22.03C45.96 21.77 45.9133 21.54 45.82 21.34C45.7333 21.14 45.61 20.9667 45.45 20.82C45.2967 20.6667 45.1067 20.5367 44.88 20.43C44.66 20.3167 44.4167 20.22 44.15 20.14L40.46 19.05C40.1 18.9433 39.7333 18.8067 39.36 18.64C38.9867 18.4667 38.6433 18.2433 38.33 17.97C38.0233 17.69 37.7733 17.3467 37.58 16.94C37.3867 16.5267 37.29 16.0267 37.29 15.44C37.29 14.5533 37.5167 13.8033 37.97 13.19C38.43 12.57 39.05 12.1033 39.83 11.79C40.61 11.47 41.4833 11.31 42.45 11.31C43.4233 11.3233 44.2933 11.4967 45.06 11.83C45.8333 12.1633 46.4733 12.6433 46.98 13.27C47.4933 13.89 47.8467 14.6433 48.04 15.53L45.8 15.91C45.7 15.37 45.4867 14.9067 45.16 14.52C44.8333 14.1267 44.4333 13.8267 43.96 13.62C43.4867 13.4067 42.9733 13.2967 42.42 13.29C41.8867 13.2767 41.3967 13.3567 40.95 13.53C40.51 13.7033 40.1567 13.9467 39.89 14.26C39.63 14.5733 39.5 14.9333 39.5 15.34C39.5 15.74 39.6167 16.0633 39.85 16.31C40.0833 16.5567 40.37 16.7533 40.71 16.9C41.0567 17.04 41.4 17.1567 41.74 17.25L44.4 18C44.7333 18.0933 45.11 18.22 45.53 18.38C45.9567 18.5333 46.3667 18.75 46.76 19.03C47.16 19.31 47.49 19.6833 47.75 20.15C48.01 20.61 48.14 21.19 48.14 21.89C48.14 22.6167 47.9933 23.2567 47.7 23.81C47.4067 24.3567 47.0033 24.8167 46.49 25.19C45.9833 25.5567 45.3967 25.8333 44.73 26.02C44.0633 26.2067 43.36 26.3 42.62 26.3ZM54.3411 26.29C53.5944 26.29 52.9678 26.17 52.4611 25.93C51.9544 25.69 51.5411 25.3767 51.2211 24.99C50.9078 24.5967 50.6678 24.17 50.5011 23.71C50.3344 23.25 50.2211 22.8 50.1611 22.36C50.1011 21.92 50.0711 21.5333 50.0711 21.2V15.2H52.1911V20.51C52.1911 20.93 52.2244 21.3633 52.2911 21.81C52.3644 22.25 52.4978 22.66 52.6911 23.04C52.8911 23.42 53.1678 23.7267 53.5211 23.96C53.8811 24.1933 54.3478 24.31 54.9211 24.31C55.2944 24.31 55.6478 24.25 55.9811 24.13C56.3144 24.0033 56.6044 23.8033 56.8511 23.53C57.1044 23.2567 57.3011 22.8967 57.4411 22.45C57.5878 22.0033 57.6611 21.46 57.6611 20.82L58.9611 21.31C58.9611 22.29 58.7778 23.1567 58.4111 23.91C58.0444 24.6567 57.5178 25.24 56.8311 25.66C56.1444 26.08 55.3144 26.29 54.3411 26.29ZM57.9111 26V22.88H57.6611V15.2H59.7711V26H57.9111ZM67.6458 26.3C66.6124 26.3 65.7458 26.05 65.0458 25.55C64.3458 25.0433 63.8158 24.36 63.4558 23.5C63.0958 22.64 62.9158 21.67 62.9158 20.59C62.9158 19.51 63.0924 18.54 63.4458 17.68C63.8058 16.82 64.3324 16.1433 65.0258 15.65C65.7258 15.15 66.5858 14.9 67.6058 14.9C68.6191 14.9 69.4924 15.15 70.2258 15.65C70.9658 16.1433 71.5358 16.82 71.9358 17.68C72.3358 18.5333 72.5358 19.5033 72.5358 20.59C72.5358 21.67 72.3358 22.6433 71.9358 23.51C71.5424 24.37 70.9791 25.05 70.2458 25.55C69.5191 26.05 68.6524 26.3 67.6458 26.3ZM62.5658 30.8V15.2H64.4258V22.97H64.6658V30.8H62.5658ZM67.3558 24.41C68.0224 24.41 68.5724 24.24 69.0058 23.9C69.4458 23.56 69.7724 23.1033 69.9858 22.53C70.2058 21.95 70.3158 21.3033 70.3158 20.59C70.3158 19.8833 70.2058 19.2433 69.9858 18.67C69.7724 18.0967 69.4424 17.64 68.9958 17.3C68.5491 16.96 67.9791 16.79 67.2858 16.79C66.6324 16.79 66.0924 16.95 65.6658 17.27C65.2458 17.59 64.9324 18.0367 64.7258 18.61C64.5258 19.1833 64.4258 19.8433 64.4258 20.59C64.4258 21.3367 64.5258 21.9967 64.7258 22.57C64.9258 23.1433 65.2424 23.5933 65.6758 23.92C66.1091 24.2467 66.6691 24.41 67.3558 24.41ZM79.5338 26.3C78.4604 26.3 77.5171 26.0667 76.7038 25.6C75.8971 25.1267 75.2671 24.47 74.8137 23.63C74.3671 22.7833 74.1438 21.8033 74.1438 20.69C74.1438 19.51 74.3638 18.4867 74.8038 17.62C75.2504 16.7533 75.8704 16.0833 76.6638 15.61C77.4571 15.1367 78.3804 14.9 79.4338 14.9C80.5338 14.9 81.4704 15.1567 82.2438 15.67C83.0171 16.1767 83.5938 16.9 83.9738 17.84C84.3604 18.78 84.5138 19.8967 84.4338 21.19H82.3438V20.43C82.3304 19.1767 82.0904 18.25 81.6238 17.65C81.1638 17.05 80.4604 16.75 79.5138 16.75C78.4671 16.75 77.6804 17.08 77.1538 17.74C76.6271 18.4 76.3638 19.3533 76.3638 20.6C76.3638 21.7867 76.6271 22.7067 77.1538 23.36C77.6804 24.0067 78.4404 24.33 79.4338 24.33C80.0871 24.33 80.6504 24.1833 81.1238 23.89C81.6038 23.59 81.9771 23.1633 82.2438 22.61L84.2938 23.26C83.8738 24.2267 83.2371 24.9767 82.3838 25.51C81.5304 26.0367 80.5804 26.3 79.5338 26.3ZM75.6838 21.19V19.56H83.3937V21.19H75.6838ZM86.6773 26V15.2H88.5373V17.82L88.2773 17.48C88.4107 17.1333 88.584 16.8167 88.7973 16.53C89.0107 16.2367 89.2573 15.9967 89.5373 15.81C89.8107 15.61 90.114 15.4567 90.4473 15.35C90.7873 15.2367 91.134 15.17 91.4873 15.15C91.8407 15.1233 92.1807 15.14 92.5073 15.2V17.16C92.154 17.0667 91.7607 17.04 91.3273 17.08C90.9007 17.12 90.5073 17.2567 90.1473 17.49C89.8073 17.71 89.5373 17.9767 89.3373 18.29C89.144 18.6033 89.004 18.9533 88.9173 19.34C88.8307 19.72 88.7873 20.1233 88.7873 20.55V26H86.6773ZM94.6117 26V11.6H96.7017V26H94.6117ZM107.285 26V20.69C107.285 20.27 107.248 19.84 107.175 19.4C107.108 18.9533 106.975 18.54 106.775 18.16C106.581 17.78 106.305 17.4733 105.945 17.24C105.591 17.0067 105.128 16.89 104.555 16.89C104.181 16.89 103.828 16.9533 103.495 17.08C103.161 17.2 102.868 17.3967 102.615 17.67C102.368 17.9433 102.171 18.3033 102.025 18.75C101.885 19.1967 101.815 19.74 101.815 20.38L100.515 19.89C100.515 18.91 100.698 18.0467 101.065 17.3C101.431 16.5467 101.958 15.96 102.645 15.54C103.331 15.12 104.161 14.91 105.135 14.91C105.881 14.91 106.508 15.03 107.015 15.27C107.521 15.51 107.931 15.8267 108.245 16.22C108.565 16.6067 108.808 17.03 108.975 17.49C109.141 17.95 109.255 18.4 109.315 18.84C109.375 19.28 109.405 19.6667 109.405 20V26H107.285ZM99.6947 26V15.2H101.565V18.32H101.815V26H99.6947ZM114.929 26L111.009 15.2H113.119L115.989 23.38L118.859 15.2H120.969L117.049 26H114.929ZM127.17 26.3C126.097 26.3 125.154 26.0667 124.34 25.6C123.534 25.1267 122.904 24.47 122.45 23.63C122.004 22.7833 121.78 21.8033 121.78 20.69C121.78 19.51 122 18.4867 122.44 17.62C122.887 16.7533 123.507 16.0833 124.3 15.61C125.094 15.1367 126.017 14.9 127.07 14.9C128.17 14.9 129.107 15.1567 129.88 15.67C130.654 16.1767 131.23 16.9 131.61 17.84C131.997 18.78 132.15 19.8967 132.07 21.19H129.98V20.43C129.967 19.1767 129.727 18.25 129.26 17.65C128.8 17.05 128.097 16.75 127.15 16.75C126.104 16.75 125.317 17.08 124.79 17.74C124.264 18.4 124 19.3533 124 20.6C124 21.7867 124.264 22.7067 124.79 23.36C125.317 24.0067 126.077 24.33 127.07 24.33C127.724 24.33 128.287 24.1833 128.76 23.89C129.24 23.59 129.614 23.1633 129.88 22.61L131.93 23.26C131.51 24.2267 130.874 24.9767 130.02 25.51C129.167 26.0367 128.217 26.3 127.17 26.3ZM123.32 21.19V19.56H131.03V21.19H123.32ZM141.601 26V20.69C141.601 20.27 141.564 19.84 141.491 19.4C141.424 18.9533 141.291 18.54 141.091 18.16C140.898 17.78 140.621 17.4733 140.261 17.24C139.908 17.0067 139.444 16.89 138.871 16.89C138.498 16.89 138.144 16.9533 137.811 17.08C137.478 17.2 137.184 17.3967 136.931 17.67C136.684 17.9433 136.488 18.3033 136.341 18.75C136.201 19.1967 136.131 19.74 136.131 20.38L134.831 19.89C134.831 18.91 135.014 18.0467 135.381 17.3C135.748 16.5467 136.274 15.96 136.961 15.54C137.648 15.12 138.478 14.91 139.451 14.91C140.198 14.91 140.824 15.03 141.331 15.27C141.838 15.51 142.248 15.8267 142.561 16.22C142.881 16.6067 143.124 17.03 143.291 17.49C143.458 17.95 143.571 18.4 143.631 18.84C143.691 19.28 143.721 19.6667 143.721 20V26H141.601ZM134.011 26V15.2H135.881V18.32H136.131V26H134.011ZM152.506 26C151.826 26.1333 151.159 26.19 150.506 26.17C149.852 26.15 149.269 26.0233 148.756 25.79C148.242 25.5567 147.856 25.19 147.596 24.69C147.362 24.2433 147.236 23.79 147.216 23.33C147.202 22.8633 147.196 22.3367 147.196 21.75V12.2H149.296V21.65C149.296 22.0833 149.299 22.46 149.306 22.78C149.319 23.1 149.389 23.37 149.516 23.59C149.756 24.0033 150.136 24.24 150.656 24.3C151.182 24.3533 151.799 24.33 152.506 24.23V26ZM145.126 16.88V15.2H152.506V16.88H145.126Z" fill="#2D4553"/>
</svg>
