<svg width="32" height="32" viewBox="0 0 32 32" fill="none" xmlns="http://www.w3.org/2000/svg">
<path fill-rule="evenodd" clip-rule="evenodd" d="M4 7.99984C4 7.26346 4.59695 6.6665 5.33333 6.6665H26.6667C27.403 6.6665 28 7.26346 28 7.99984C28 8.73622 27.403 9.33317 26.6667 9.33317H5.33333C4.59695 9.33317 4 8.73622 4 7.99984ZM4 15.9998C4 15.2635 4.59695 14.6665 5.33333 14.6665H26.6667C27.403 14.6665 28 15.2635 28 15.9998C28 16.7362 27.403 17.3332 26.6667 17.3332H5.33333C4.59695 17.3332 4 16.7362 4 15.9998ZM4 23.9998C4 23.2635 4.59695 22.6665 5.33333 22.6665H26.6667C27.403 22.6665 28 23.2635 28 23.9998C28 24.7362 27.403 25.3332 26.6667 25.3332H5.33333C4.59695 25.3332 4 24.7362 4 23.9998Z" fill="#687782"/>
</svg>
