<svg width="34" height="34" viewBox="0 0 34 34" fill="none" xmlns="http://www.w3.org/2000/svg">
<path fill-rule="evenodd" clip-rule="evenodd" d="M30.6004 16.9999C30.6004 24.511 24.5115 30.5999 17.0004 30.5999C9.48932 30.5999 3.40039 24.511 3.40039 16.9999C3.40039 9.48883 9.48932 3.3999 17.0004 3.3999C24.5115 3.3999 30.6004 9.48883 30.6004 16.9999ZM20.4004 11.8999C20.4004 13.7777 18.8782 15.2999 17.0004 15.2999C15.1226 15.2999 13.6004 13.7777 13.6004 11.8999C13.6004 10.0221 15.1226 8.4999 17.0004 8.4999C18.8782 8.4999 20.4004 10.0221 20.4004 11.8999ZM17.0003 18.6999C13.5705 18.6999 10.6151 20.7313 9.27174 23.6566C11.1422 25.8264 13.9109 27.1999 17.0004 27.1999C20.0898 27.1999 22.8584 25.8264 24.7289 23.6568C23.3855 20.7314 20.4301 18.6999 17.0003 18.6999Z" fill="#687782"/>
</svg>
